<svg width="580" height="400" xmlns="http://www.w3.org/2000/svg">
 <!-- Created with Method Draw - http://github.com/duopixel/Method-Draw/ -->
 <g>
  <title>background</title>
  <rect fill="#fff" id="canvas_background" height="402" width="582" y="-1" x="-1"/>
  <g display="none" overflow="visible" y="0" x="0" height="100%" width="100%" id="canvasGrid">
   <rect fill="url(#gridpattern)" stroke-width="0" y="0" x="0" height="100%" width="100%"/>
  </g>
 </g>
 <g>
  <title>Layer 1</title>
  <rect stroke="#6D97AB" rx="19" id="svg_3" height="237.000005" width="237.000005" y="81.499999" x="171.5" stroke-width="0" fill="#0E353B"/>
  <path stroke="#FFDFB8" id="svg_6" d="m372.249087,182.617869c-8.202318,-44.938959 -47.450061,-79.016801 -94.735032,-79.016801l0,34.755576c34.034405,0.052133 61.560827,27.595927 61.639028,61.639014c-0.0782,34.034398 -27.604622,61.560814 -61.639028,61.630325l0,34.772954c47.284972,-0.034756 86.532714,-34.112598 94.735032,-79.034179l40.750922,0l0,-34.746887l-40.750922,0zm-40.707477,17.377788c0,-29.846351 -24.189886,-54.036231 -54.036244,-54.036231c-23.746753,0 -43.878924,15.344587 -51.125463,36.649755l-59.379915,0l0,34.764265l59.379915,0c7.23785,21.305168 27.370022,36.658444 51.125463,36.658444c29.846357,0 54.036244,-24.19857 54.036244,-54.036231z" stroke-width="0" fill="#FFDFB8"/>
 </g>
</svg>